<!DOCTYPE svg PUBLIC "-//W3C//DTD SVG 1.1//EN" "http://www.w3.org/Graphics/SVG/1.1/DTD/svg11.dtd">
<!-- Uploaded to: SVG Repo, www.svgrepo.com, Transformed by: SVG Repo Mixer Tools -->
<svg fill="#ffffff" height="800px" width="800px" version="1.1" id="Layer_1" xmlns="http://www.w3.org/2000/svg" xmlns:xlink="http://www.w3.org/1999/xlink" viewBox="0 0 491.52 491.52" xml:space="preserve">
<g id="SVGRepo_bgCarrier" stroke-width="0"/>
<g id="SVGRepo_tracerCarrier" stroke-linecap="round" stroke-linejoin="round"/>
<g id="SVGRepo_iconCarrier"> <g> <g> <path d="M253,3c-4-4-10.48-4-14.48,0l-40.96,40.96l14.48,14.48l23.48-23.48v67.44H256V34.96l23.48,23.48l14.48-14.48L253,3z"/> </g> </g> <g> <g> <path d="M103.943,89.47h33.207V68.99H79.22c-5.66,0-10.24,4.58-10.24,10.24v57.92h20.48v-33.203l40.45,40.443l14.48-14.48 L103.943,89.47z"/> </g> </g> <g> <g> <path d="M92.16,235.52h-57.2l23.48-23.48l-14.48-14.48L3,238.52c-4,4-4,10.48,0,14.48l40.96,40.96l14.48-14.48L34.96,256h57.2 V235.52z"/> </g> </g> <g> <g> <path d="M144.39,361.62l-14.48-14.48l-40.45,40.443V354.38H68.98v57.92c0,5.66,4.58,10.24,10.24,10.24h57.93v-20.48h-33.207 L144.39,361.62z"/> </g> </g> <g> <g> <path d="M279.48,433.08L256,456.56v-67.44h-20.48v67.44l-23.48-23.48l-14.48,14.48l40.96,40.96c2,2,4.62,3,7.24,3s5.24-1,7.24-3 l40.96-40.96L279.48,433.08z"/> </g> </g> <g> <g> <path d="M402.06,354.38v33.203l-40.45-40.443l-14.48,14.48l40.447,40.44H354.37v20.48h57.93c5.66,0,10.24-4.58,10.24-10.24v-57.92 H402.06z"/> </g> </g> <g> <g> <path d="M488.52,238.52l-40.96-40.96l-14.48,14.48l23.48,23.48h-57.2V256h57.2l-23.48,23.48l14.48,14.48L488.52,253 C492.52,249,492.52,242.52,488.52,238.52z"/> </g> </g> <g> <g> <path d="M412.3,68.99h-57.93v20.48h33.207l-40.447,40.44l14.48,14.48l40.45-40.443v33.203h20.48V79.23 C422.54,73.57,417.96,68.99,412.3,68.99z"/> </g> </g> <g> <g> <path d="M358.4,327.68V163.84H133.12v163.84h102.4v20.48h-49.49v20.48h119.46v-20.48H256v-20.48H358.4z M153.6,307.2V184.32 h184.32V307.2H153.6z"/> </g> </g> </g>
</svg>